<?xml version="1.0" encoding="UTF-8" standalone="no"?>
<svg
   xmlns:dc="http://purl.org/dc/elements/1.1/"
   xmlns:cc="http://creativecommons.org/ns#"
   xmlns:rdf="http://www.w3.org/1999/02/22-rdf-syntax-ns#"
   xmlns:svg="http://www.w3.org/2000/svg"
   xmlns="http://www.w3.org/2000/svg"
   xmlns:sodipodi="http://sodipodi.sourceforge.net/DTD/sodipodi-0.dtd"
   xmlns:inkscape="http://www.inkscape.org/namespaces/inkscape"
   width="480pt"
   height="365pt"
   viewBox="0 0 480 365"
   version="1.1"
   id="svg3007"
   inkscape:version="0.48.0 r9654"
   sodipodi:docname="Nodo-logo.svg"
   inkscape:export-filename="C:\Documents and Settings\Tonkes\Bureaublad\Logo.png"
   inkscape:export-xdpi="11.681638"
   inkscape:export-ydpi="11.681638">
  <metadata
     id="metadata3027">
    <rdf:RDF>
      <cc:Work
         rdf:about="">
        <dc:format>image/svg+xml</dc:format>
        <dc:type
           rdf:resource="http://purl.org/dc/dcmitype/StillImage" />
        <dc:title></dc:title>
      </cc:Work>
    </rdf:RDF>
  </metadata>
  <defs
     id="defs3025" />
  <sodipodi:namedview
     pagecolor="#ffffff"
     bordercolor="#666666"
     borderopacity="1"
     objecttolerance="10"
     gridtolerance="10"
     guidetolerance="10"
     inkscape:pageopacity="0"
     inkscape:pageshadow="2"
     inkscape:window-width="1024"
     inkscape:window-height="749"
     id="namedview3023"
     showgrid="false"
     inkscape:zoom="0.56547945"
     inkscape:cx="300"
     inkscape:cy="228.125"
     inkscape:window-x="-4"
     inkscape:window-y="-4"
     inkscape:window-maximized="1"
     inkscape:current-layer="svg3007" />
  <rect
     style="fill:#0000ff"
     id="rect2993"
     width="481.00775"
     height="369.2442"
     x="-8.4883718"
     y="-1.41473" />
  <path
     sodipodi:type="arc"
     style="fill:#ffffff"
     id="path2995"
     sodipodi:cx="211.3251"
     sodipodi:cy="5.3052311"
     sodipodi:rx="269.68265"
     sodipodi:ry="155.62016"
     d="m 481.00775,5.3052311 a 269.68265,155.62016 0 1 1 -539.365294,0 269.68265,155.62016 0 1 1 539.365294,0 z"
     transform="matrix(0.85245902,0,0,1.0636364,51.162158,183.93081)" />
  <path
     fill="#0102e9"
     d=" M 251.15 92.23 C 263.39 75.16 280.39 60.24 301.07 54.81 C 313.19 53.24 326.10 54.84 336.57 61.50 C 345.88 67.96 353.12 77.33 356.95 88.00 C 362.58 102.83 363.36 119.32 360.01 134.77 C 356.84 147.05 351.63 158.71 346.07 170.06 C 335.46 191.69 320.66 211.83 300.71 225.70 C 291.06 232.69 279.57 238.41 267.36 237.74 C 259.25 237.61 251.57 232.31 248.49 224.82 C 243.36 212.81 245.76 199.14 250.36 187.37 C 257.80 170.78 270.75 156.74 286.42 147.57 C 293.66 143.41 301.71 140.48 310.10 139.99 C 304.32 142.73 298.39 145.34 293.39 149.42 C 283.21 157.31 274.59 167.51 269.34 179.33 C 265.08 188.88 263.88 200.48 269.10 209.92 C 272.93 217.47 282.00 222.15 290.35 220.13 C 299.96 218.00 307.78 211.32 313.84 203.85 C 323.82 191.39 330.62 176.75 336.11 161.85 C 339.81 150.60 342.18 138.88 342.91 127.05 C 343.61 122.05 343.63 116.94 342.90 111.94 C 342.22 100.04 338.43 87.73 329.96 79.04 C 321.18 70.36 308.24 66.75 296.12 67.60 C 278.64 69.79 263.57 80.33 251.15 92.23 Z"
     id="path3011"
     style="fill:#0000ff" />
  <path
     fill="#0102e9"
     d=" M 52.06 146.28 C 57.72 142.27 63.24 137.45 70.06 135.61 C 71.05 145.97 70.90 156.51 69.13 166.78 C 68.33 171.23 66.25 175.31 65.45 179.76 C 67.37 179.10 69.15 178.07 70.54 176.59 C 80.01 167.02 89.84 157.82 99.82 148.80 C 105.15 144.09 111.35 138.58 119.02 139.50 C 125.61 140.19 132.57 145.00 133.35 152.00 C 134.33 161.84 130.08 171.16 125.79 179.74 C 117.42 196.30 108.86 212.80 101.80 229.97 C 97.03 242.68 94.30 256.99 98.38 270.27 C 102.02 283.37 113.79 293.46 127.02 295.99 C 134.41 297.21 142.02 296.41 149.24 294.53 C 161.72 291.46 173.37 285.36 183.37 277.34 C 185.98 275.28 188.07 272.57 191.02 270.95 C 188.76 276.01 184.79 280.04 181.07 284.06 C 170.43 295.32 157.69 305.01 142.98 310.24 C 135.25 312.66 126.95 314.13 118.93 312.30 C 108.01 310.53 98.67 303.60 91.71 295.28 C 82.82 285.20 80.07 271.11 80.60 258.02 C 81.46 240.46 89.72 224.63 97.09 209.06 C 102.46 198.13 108.08 187.24 111.83 175.62 C 113.24 170.27 114.96 164.11 111.99 158.96 C 109.49 154.80 103.07 154.17 99.83 157.84 C 87.62 170.30 75.51 182.90 64.22 196.20 C 57.74 203.89 52.76 212.68 46.62 220.63 C 41.87 226.76 36.89 233.24 29.73 236.68 C 25.87 238.57 20.93 238.05 18.08 234.64 C 31.27 215.51 43.86 195.54 51.25 173.36 C 54.27 164.70 54.85 155.08 52.06 146.28 Z"
     id="path3013"
     style="fill:#0000ff" />
  <path
     fill="#0102e9"
     d=" M 197.33 139.38 C 205.09 138.28 213.54 140.17 219.36 145.61 C 231.11 158.63 233.10 179.22 224.42 194.41 C 219.11 203.99 211.25 211.90 203.08 219.08 C 195.43 226.16 186.66 232.16 176.97 236.07 C 171.38 238.67 165.05 238.82 159.00 238.59 C 152.49 238.32 146.41 234.43 143.32 228.72 C 138.93 222.05 137.93 213.74 138.82 205.95 C 140.56 195.00 145.60 184.82 152.12 175.95 C 158.96 166.70 166.83 158.21 175.50 150.64 C 181.96 145.59 189.03 140.63 197.33 139.38 Z"
     id="path3015"
     style="fill:#0000ff" />
  <path
     fill="#0102e9"
     d=" M 410.34 140.28 C 419.22 138.03 429.90 139.65 436.07 146.95 C 446.76 159.29 448.47 178.01 441.50 192.56 C 435.17 204.62 425.00 214.00 414.84 222.80 C 404.04 231.32 391.26 239.39 376.95 238.60 C 369.77 238.93 362.82 234.76 359.53 228.42 C 354.67 220.71 354.50 211.15 355.90 202.42 C 359.11 187.43 368.63 174.83 378.60 163.59 C 387.54 153.96 397.47 144.24 410.34 140.28 Z"
     id="path3017"
     style="fill:#0000ff" />
  <path
     fill="#f9f3ff"
     d=" M 184.45 154.69 C 190.94 153.32 197.99 155.67 202.58 160.42 C 207.01 164.86 209.24 170.98 210.27 177.06 C 211.68 188.60 209.28 200.87 202.34 210.35 C 197.94 215.91 191.54 219.88 184.61 221.38 C 176.39 223.08 167.29 219.21 163.10 211.88 C 158.71 205.10 158.95 196.73 159.47 189.00 C 161.37 177.78 166.70 166.87 175.44 159.39 C 178.12 157.30 181.19 155.66 184.45 154.69 Z"
     id="path3019"
     style="fill:#ffffff" />
  <path
     fill="#f9f3ff"
     d=" M 401.47 154.63 C 409.52 153.52 417.99 157.89 422.01 164.93 C 426.57 172.65 427.34 181.97 426.19 190.70 C 424.94 198.15 422.37 205.62 417.48 211.48 C 412.21 217.17 404.90 221.52 396.98 221.72 C 389.61 221.83 382.34 217.69 378.94 211.08 C 372.89 199.90 375.02 186.17 380.04 175.02 C 384.39 166.04 391.36 157.20 401.47 154.63 Z"
     id="path3021"
     style="fill:#ffffff" />
</svg>
